<?xml version="1.0" encoding="UTF-8" standalone="no"?>
<svg
   xmlns:dc="http://purl.org/dc/elements/1.1/"
   xmlns:cc="http://creativecommons.org/ns#"
   xmlns:rdf="http://www.w3.org/1999/02/22-rdf-syntax-ns#"
   xmlns:svg="http://www.w3.org/2000/svg"
   xmlns="http://www.w3.org/2000/svg"
   xmlns:xlink="http://www.w3.org/1999/xlink"
   xmlns:sodipodi="http://sodipodi.sourceforge.net/DTD/sodipodi-0.dtd"
   xmlns:inkscape="http://www.inkscape.org/namespaces/inkscape"
   version="1.1"
   id="svg4496"
   width="3000"
   height="800"
   viewBox="0 0 3000 800"
   sodipodi:docname="header.svg"
   inkscape:version="1.0 (4035a4fb49, 2020-05-01)"
   inkscape:export-filename="C:\biga.png"
   inkscape:export-xdpi="60.939999"
   inkscape:export-ydpi="60.939999">
  <metadata
     id="metadata4502">
    <rdf:RDF>
      <cc:Work
         rdf:about="">
        <dc:format>image/svg+xml</dc:format>
        <dc:type
           rdf:resource="http://purl.org/dc/dcmitype/StillImage" />
        <dc:title />
      </cc:Work>
    </rdf:RDF>
  </metadata>
  <defs
     id="defs4500">
    <linearGradient
       inkscape:collect="always"
       id="linearGradient5341">
      <stop
         style="stop-color:#bbddfc;stop-opacity:1"
         offset="0"
         id="stop5337" />
      <stop
         style="stop-color:#fdfefe;stop-opacity:1"
         offset="1"
         id="stop5339" />
    </linearGradient>
    <filter
       style="color-interpolation-filters:sRGB"
       inkscape:label="Drop Shadow"
       id="filter5465">
      <feFlood
         flood-opacity="0.498039"
         flood-color="rgb(0,0,0)"
         result="flood"
         id="feFlood5455" />
      <feComposite
         in="flood"
         in2="SourceGraphic"
         operator="in"
         result="composite1"
         id="feComposite5457" />
      <feGaussianBlur
         in="composite1"
         stdDeviation="8.3"
         result="blur"
         id="feGaussianBlur5459" />
      <feOffset
         dx="6"
         dy="6"
         result="offset"
         id="feOffset5461" />
      <feComposite
         in="SourceGraphic"
         in2="offset"
         operator="over"
         result="fbSourceGraphic"
         id="feComposite5463" />
      <feColorMatrix
         result="fbSourceGraphicAlpha"
         in="fbSourceGraphic"
         values="0 0 0 -1 0 0 0 0 -1 0 0 0 0 -1 0 0 0 0 1 0"
         id="feColorMatrix6247" />
      <feFlood
         id="feFlood6249"
         flood-opacity="0.498039"
         flood-color="rgb(0,0,0)"
         result="flood"
         in="fbSourceGraphic" />
      <feComposite
         in2="fbSourceGraphic"
         id="feComposite6251"
         in="flood"
         operator="in"
         result="composite1" />
      <feGaussianBlur
         id="feGaussianBlur6253"
         in="composite1"
         stdDeviation="0"
         result="blur" />
      <feOffset
         id="feOffset6255"
         dx="4"
         dy="6"
         result="offset" />
      <feComposite
         in2="offset"
         id="feComposite6257"
         in="fbSourceGraphic"
         operator="over"
         result="composite2" />
    </filter>
    <filter
       style="color-interpolation-filters:sRGB"
       inkscape:label="Drop Shadow"
       id="filter5477">
      <feFlood
         flood-opacity="0.498039"
         flood-color="rgb(0,0,0)"
         result="flood"
         id="feFlood5467" />
      <feComposite
         in="flood"
         in2="SourceGraphic"
         operator="in"
         result="composite1"
         id="feComposite5469" />
      <feGaussianBlur
         in="composite1"
         stdDeviation="8.3"
         result="blur"
         id="feGaussianBlur5471" />
      <feOffset
         dx="6"
         dy="6"
         result="offset"
         id="feOffset5473" />
      <feComposite
         in="SourceGraphic"
         in2="offset"
         operator="over"
         result="fbSourceGraphic"
         id="feComposite5475" />
      <feColorMatrix
         result="fbSourceGraphicAlpha"
         in="fbSourceGraphic"
         values="0 0 0 -1 0 0 0 0 -1 0 0 0 0 -1 0 0 0 0 1 0"
         id="feColorMatrix6259" />
      <feFlood
         id="feFlood6261"
         flood-opacity="0.498039"
         flood-color="rgb(0,0,0)"
         result="flood"
         in="fbSourceGraphic" />
      <feComposite
         in2="fbSourceGraphic"
         id="feComposite6263"
         in="flood"
         operator="in"
         result="composite1" />
      <feGaussianBlur
         id="feGaussianBlur6265"
         in="composite1"
         stdDeviation="0"
         result="blur" />
      <feOffset
         id="feOffset6267"
         dx="4"
         dy="6"
         result="offset" />
      <feComposite
         in2="offset"
         id="feComposite6269"
         in="fbSourceGraphic"
         operator="over"
         result="composite2" />
    </filter>
    <linearGradient
       gradientUnits="userSpaceOnUse"
       y2="-132.45819"
       x2="1881.9504"
       y1="319.73761"
       x1="1881.9504"
       id="linearGradient1208"
       xlink:href="#linearGradient5341"
       inkscape:collect="always"
       gradientTransform="translate(-2.3964724e-5)" />
    <linearGradient
       gradientUnits="userSpaceOnUse"
       y2="607.74152"
       x2="1782.5403"
       y1="699.74152"
       x1="1782.5403"
       id="linearGradient875"
       xlink:href="#linearGradient5341"
       inkscape:collect="always"
       gradientTransform="translate(3.0352132e-6)" />
    <linearGradient
       inkscape:collect="always"
       xlink:href="#linearGradient5341"
       id="linearGradient1582"
       x1="401.42007"
       y1="707.58838"
       x2="401.42007"
       y2="-508.03662"
       gradientUnits="userSpaceOnUse" />
  </defs>
  <sodipodi:namedview
     pagecolor="#ffffff"
     bordercolor="#666666"
     borderopacity="1"
     objecttolerance="10"
     gridtolerance="10"
     guidetolerance="10"
     inkscape:pageopacity="0"
     inkscape:pageshadow="2"
     inkscape:window-width="1920"
     inkscape:window-height="986"
     id="namedview4498"
     showgrid="false"
     showguides="true"
     inkscape:guide-bbox="true"
     inkscape:zoom="0.32"
     inkscape:cx="1313.3446"
     inkscape:cy="93.84601"
     inkscape:window-x="-11"
     inkscape:window-y="-11"
     inkscape:window-maximized="1"
     inkscape:current-layer="layer2"
     inkscape:document-rotation="0">
    <sodipodi:guide
       position="401.42006,348.14234"
       orientation="1,0"
       inkscape:locked="false"
       id="guide5382" />
    <sodipodi:guide
       position="574.11336,402.33865"
       orientation="0,1"
       inkscape:locked="false"
       id="guide5384" />
    <sodipodi:guide
       position="880,566"
       orientation="1,0"
       id="guide867" />
  </sodipodi:namedview>
  <g
     inkscape:groupmode="layer"
     id="layer2"
     inkscape:label="Layer 1">
    <text
       id="text968"
       y="506.66183"
       x="866.95343"
       style="font-style:normal;font-variant:normal;font-weight:normal;font-stretch:normal;font-size:482.339px;line-height:1.25;font-family:Calibri;-inkscape-font-specification:Calibri;fill:url(#linearGradient1208);fill-opacity:1;stroke:none;stroke-width:0.999999"
       xml:space="preserve"><tspan
         style="font-style:normal;font-variant:normal;font-weight:normal;font-stretch:normal;font-family:Calibri;-inkscape-font-specification:Calibri;fill:url(#linearGradient1208);fill-opacity:1;stroke-width:0.999999"
         y="506.66183"
         x="866.95343"
         id="tspan966"
         sodipodi:role="line">stringc.ahk</tspan></text>
    <path
       d="m 401.42007,40.14314 c -63.32634,-0.240719 -126.41393,21.168513 -178.35238,62.92863 -58.08144,46.69946 -95.48127,116.26781 -103.07357,191.72303 -9.09066,90.34837 28.74902,182.90352 98.74015,241.51497 101.85534,85.29487 248.55577,88.68177 352.66764,8.14169 8.36775,-6.45759 13.33279,-8.7511 18.71957,-13.10674 l 4.93243,2.23754 c 23.68572,10.74009 79.1268,26.23077 120.51121,33.67192 66.20041,11.90325 101.34915,36.57374 105.46891,74.03192 3.93357,35.76635 -24.57769,63.75504 -72.32794,70.99956 -33.94667,5.15009 -77.90788,-0.95345 -187.27775,-26.00114 C 427.57849,655.63038 395.86062,650.7645 319.48329,649.16103 218.77692,647.04738 144.6001,663.1959 74.530228,702.48895 c -27.350585,15.3367 -32.823907,21.50165 -28.894661,32.52047 3.711134,10.39938 14.813176,7.84456 57.190453,-13.16117 79.60512,-39.45856 166.96672,-52.65036 270.69017,-40.8772 32.07521,3.64053 104.9322,17.11517 161.90551,29.94541 157.33266,35.43076 200.49124,39.74511 246.7087,24.6646 53.64907,-17.5051 82.91529,-74.60737 61.98128,-120.93851 -9.49288,-21.00925 -14.31298,-27.08908 -33.53302,-42.30901 -20.12775,-15.93886 -51.05122,-27.16349 -101.97115,-37.01733 -23.121,-4.47426 -56.83966,-13.1845 -74.93304,-19.35386 l -23.12378,-7.88581 c 23.05995,-28.31515 30.69629,-39.94257 42.6818,-64.65443 37.9226,-78.18884 37.57947,-168.13259 -0.93364,-245.66884 C 623.04657,138.86116 579.90973,96.23671 520.62176,67.638698 482.70557,49.349519 442.01383,40.297464 401.42007,40.14314 Z m -5.52587,27.56088 c 2.64259,0.08181 4.17301,0.421454 4.17301,1.067056 0,4.538644 -21.84326,49.769344 -27.7733,57.509004 l -2.61039,3.4053 -24.87705,-12.69025 C 331.12456,110.01445 313.6897,101.71649 306.06075,98.55588 298.4318,95.39532 291.9893,92.6098 291.7454,92.3659 c -0.93712,-0.93725 28.97522,-12.07972 41.50594,-15.4613 18.88541,-5.096368 51.19184,-9.55508 62.64286,-9.20058 z m 34.64366,1.867344 c 5.66816,-0.0084 44.54726,8.694446 46.48199,10.567046 1.25669,1.21642 -7.98365,28.88278 -15.317,45.8613 -6.02035,13.93811 -20.12371,40.03937 -24.82799,45.94842 l -2.91534,3.66116 -9.62793,-7.62994 c -5.29604,-4.19683 -14.02072,-10.68489 -19.38645,-14.41604 -5.36573,-3.73119 -10.16757,-7.14445 -10.6732,-7.58639 -0.50577,-0.44215 1.88804,-5.50943 5.31876,-11.25844 9.36425,-15.69161 16.11824,-29.52297 23.48057,-48.08251 3.64898,-9.19839 6.70689,-16.82202 6.79706,-16.942115 0.0627,-0.08251 0.2917,-0.121948 0.66953,-0.122505 z m 74.12999,21.673056 c 1.20429,-0.19474 3.81538,0.80037 8.51729,3.17392 10.68421,5.39335 32.81527,19.00681 33.99043,20.90816 1.03594,1.67617 -7.5523,27.9923 -14.26907,43.72177 -10.93661,25.61174 -37.79202,72.78567 -40.73843,71.56029 -0.55483,-0.23077 -8.89777,-8.58225 -18.53727,-18.55902 l -17.52461,-18.13982 6.97949,-11.1278 c 10.37467,-16.54378 27.91796,-53.44426 34.44756,-72.45312 3.15979,-9.19839 6.0269,-17.52426 6.3724,-18.50186 0.11428,-0.32205 0.36082,-0.51759 0.76221,-0.58252 z m -245.63626,19.46819 7.45307,2.43625 c 23.21633,7.59269 57.40996,23.07726 81.37609,36.84855 122.27438,70.26076 206.59465,186.52167 234.92208,323.91724 l 4.05593,19.68051 -10.80936,10.24585 c -5.94509,5.63391 -13.11928,12.0816 -15.94319,14.32894 l -5.13367,4.08581 -0.90925,-6.6636 c -3.8611,-28.28855 -14.33458,-69.4941 -24.37337,-95.89282 C 504.8652,354.4699 470.40495,302.19614 419.39652,252.4259 369.34165,203.58593 313.08038,169.32398 246.4121,147.07663 c -12.0729,-4.02874 -21.95058,-7.68946 -21.95058,-8.13351 0,-1.15581 19.92372,-17.98696 27.86835,-23.54312 z m 313.15706,25.29884 c 1.58031,-0.45606 23.23194,23.24805 31.67662,34.67907 l 5.57478,7.54557 -3.85998,9.94914 c -13.10116,33.757 -38.61053,78.75551 -58.80463,103.73507 l -4.8371,5.98308 -9.2795,-13.64841 c -5.10455,-7.50712 -11.94049,-17.15609 -15.1892,-21.44169 -3.24856,-4.28559 -5.85979,-8.36219 -5.80335,-9.05902 0.0557,-0.69689 4.1698,-7.22651 9.14056,-14.5086 17.76669,-26.02755 35.53534,-61.06147 45.33874,-89.39252 2.55757,-7.39116 5.27639,-13.62045 6.04306,-13.84169 z m -369.87393,26.82321 12.11874,3.29097 c 155.21201,42.13452 275.96211,170.62632 307.40235,327.11295 4.28785,21.34143 7.1537,43.2065 6.04307,46.10084 -0.80054,2.0861 -27.85929,16.27521 -31.03705,16.27521 -0.87176,0 -2.22657,-6.27973 -3.23101,-14.98223 -3.52452,-30.53293 -13.54017,-69.87212 -25.35328,-99.58121 -8.20148,-20.62583 -25.02659,-52.91202 -37.45293,-71.86516 -45.26278,-69.03702 -110.34629,-122.17648 -187.20973,-152.85468 -17.35165,-6.92546 -47.87889,-16.51395 -57.80842,-18.15889 -3.25776,-0.5397 -5.92334,-1.45575 -5.92334,-2.0361 0,-1.50592 10.45773,-17.61155 16.9504,-26.10457 z M 627.4165,210.0325 c 2.67464,-0.1604 17.31291,41.49779 20.95171,59.62405 1.73236,8.62971 1.68999,8.95139 -2.23201,16.0275 -12.55929,22.65904 -41.77924,63.41427 -58.35836,81.40055 -5.61158,6.08771 -7.90867,7.30645 -7.94017,4.21374 -0.0139,-0.95816 -5.02706,-12.00734 -11.1497,-24.55572 -6.12265,-12.54838 -11.12198,-22.89647 -11.11138,-22.99598 0.0139,-0.0994 6.2857,-8.55888 13.94239,-18.79856 17.87903,-23.91103 33.00174,-48.78418 45.2678,-74.45112 5.36587,-11.22781 10.14987,-20.43814 10.62972,-20.46446 z m -460.01219,12.67119 c 7.53349,-0.37853 52.15057,13.32919 76.56882,23.76905 52.37634,22.39308 106.03963,63.06104 141.26153,107.05598 45.04383,56.26353 72.73476,122.30886 81.03575,193.27188 1.14186,9.76134 1.58533,18.23947 0.98534,18.83938 -1.21809,1.21823 -25.86128,6.64562 -30.32919,6.67723 -2.58795,0.0195 -3.02655,-1.34029 -4.60839,-14.26361 C 427.14644,515.80083 415.57709,477.75632 396.62102,440.67283 351.36367,352.13685 268.88126,286.46409 173.2432,262.81328 c -10.15656,-2.51165 -18.45992,-5.23683 -18.4556,-6.05387 0.0139,-2.03142 10.57341,-32.74193 11.62036,-33.78896 0.1554,-0.1556 0.4942,-0.24151 0.99635,-0.26675 z m -17.60628,63.36417 c 4.71557,0.13881 35.73896,8.48031 48.18313,13.07134 6.51567,2.40377 18.43177,7.56441 26.48036,11.46805 l 14.63367,7.09914 -13.23997,3.18482 c -18.41783,4.43219 -39.57929,7.35917 -61.11858,8.44928 l -18.32223,0.9255 0.20711,-13.80359 c 0.21853,-14.74149 1.45418,-29.16753 2.59687,-30.31016 0.0669,-0.0672 0.26536,-0.0937 0.57978,-0.0843 z m 503.31753,42.23007 c 0.58772,-0.19057 0.59789,0.96345 0.59343,3.03238 -0.0627,26.13365 -10.49857,68.96986 -23.63304,96.99797 -6.04516,12.89998 -19.50227,35.82366 -20.46447,34.86145 -0.3377,-0.33765 -1.86296,-5.86212 -3.38891,-12.27922 -1.52596,-6.4171 -4.90526,-18.88185 -7.51021,-27.69699 -2.60496,-8.81512 -5.0548,-16.96818 -5.44406,-18.11805 -0.43776,-1.29405 4.34666,-7.66554 12.55957,-16.72435 13.83425,-15.25907 29.15096,-34.61163 40.96435,-51.76001 3.85733,-5.59932 5.56753,-8.06816 6.32334,-8.31318 z m -382.21302,8.68882 10.23502,7.70345 c 5.62858,4.23613 14.75813,11.93944 20.28748,17.11904 11.84767,11.09807 12.59775,9.9776 -11.57423,17.29054 -36.15833,10.93936 -66.96918,15.9108 -106.69118,17.21977 l -25.2744,0.83295 -2.15577,-7.52651 c -1.18492,-4.13947 -3.13651,-12.35946 -4.33899,-18.26776 -1.20262,-5.90831 -2.18852,-11.30966 -2.18852,-12.00429 0,-0.69467 7.36902,-1.70392 16.37578,-2.24026 33.551,-1.9978 64.87042,-7.44449 92.35967,-16.06288 z m 61.12945,56.95915 c 1.20388,0 15.18822,18.23933 22.74554,29.66504 3.19895,4.83663 4.82344,8.56372 4.05858,9.31218 -2.19953,2.15235 -24.15805,9.67572 -44.8352,15.36332 -33.53804,9.22531 -77.86607,15.34426 -111.15812,15.34426 h -12.85085 l -3.68284,-5.56117 c -2.02504,-3.05994 -6.81197,-11.42312 -10.63794,-18.58351 -3.82584,-7.16045 -6.95761,-13.34319 -6.95761,-13.73826 0,-0.39485 9.14627,-1.14866 20.32301,-1.67679 46.4792,-2.19613 93.70835,-11.53633 131.05369,-25.91675 6.01017,-2.31428 11.38371,-4.20832 11.94174,-4.20832 z m 41.61479,64.11001 c 1.59508,0 18.05825,38.88735 18.05825,42.65472 0,0.22277 -7.87382,2.96562 -17.50022,6.09742 -32.46531,10.5621 -66.64054,17.69179 -101.18441,21.1096 l -17.64447,1.74484 -10.22945,-7.73882 c -5.62691,-4.25683 -15.56312,-12.77031 -22.07879,-18.91833 l -11.84628,-11.17679 9.75587,-0.82479 c 59.56894,-5.03011 96.26174,-12.4579 138.23164,-27.98552 7.37474,-2.72841 13.87104,-4.96233 14.43786,-4.96233 z m 25.20638,70.96962 c 0.28961,-0.0112 0.46131,0.0199 0.50619,0.0925 1.14966,1.86033 6.28222,35.35246 6.2825,40.99697 v 5.44141 l -17.07277,-0.89284 c -28.30694,-1.48217 -54.66382,-6.92423 -79.01057,-16.31332 -6.17686,-2.38208 -11.23124,-4.54361 -11.23124,-4.80172 0,-0.25826 4.54693,-1.2001 10.10429,-2.09326 18.17923,-2.92179 52.93675,-11.36512 71.79179,-17.44025 8.8947,-2.86593 16.60184,-4.91231 18.62981,-4.98954 z"
       style="fill:url(#linearGradient1582);stroke-width:3.77954;fill-opacity:1"
       id="path1455-9" />
  </g>
</svg>
